<svg viewBox="0 0 36 36" fill="none" xmlns="http://www.w3.org/2000/svg">
<path d="M24 33V27.195C24.0563 26.4798 23.9596 25.7607 23.7165 25.0857C23.4734 24.4107 23.0894 23.7952 22.59 23.28C27.3 22.755 32.25 20.97 32.25 12.78C32.2496 10.6858 31.444 8.67183 30 7.15503C30.6838 5.32279 30.6354 3.29755 29.865 1.50003C29.865 1.50003 28.095 0.975029 24 3.72003C20.562 2.78826 16.938 2.78826 13.5 3.72003C9.405 0.975029 7.635 1.50003 7.635 1.50003C6.86456 3.29755 6.81622 5.32279 7.5 7.15503C6.04519 8.68308 5.23878 10.7152 5.25 12.825C5.25 20.955 10.2 22.74 14.91 23.325C14.4165 23.835 14.0359 24.4431 13.793 25.1099C13.55 25.7767 13.4502 26.4871 13.5 27.195V33M13.5 28.5C6 30.75 6 24.75 3 24L13.5 28.5Z" stroke="white" stroke-width="2" stroke-linecap="round" stroke-linejoin="round"/>
</svg>
